<svg xmlns="http://www.w3.org/2000/svg" width="1055" height="993" viewBox="0 0 1055 993">
<g>
<path d="M 0.00 0.00 L 1055.00 0.00 L 1055.00 993.00 L 0.00 993.00 ZM 532.66 540.25 C531.88,544.51 531.52,547.97 531.87,547.94 C532.22,547.91 536.33,543.30 541.00,537.71 C545.67,532.11 561.20,514.02 575.51,497.51 C589.81,481.01 611.64,455.62 624.01,441.10 C636.38,426.58 654.83,405.19 665.00,393.55 C675.17,381.91 692.73,361.84 704.00,348.95 C722.61,327.66 739.62,307.91 752.28,292.89 C756.45,287.94 758.02,285.00 756.51,285.00 C755.83,285.00 736.33,293.76 732.00,296.00 C730.08,297.00 709.15,307.52 685.50,319.37 C661.85,331.22 629.45,347.60 613.50,355.76 L 584.50 370.61 L 579.20 388.05 C556.79,461.77 551.93,477.39 537.97,520.50 C535.84,527.10 533.45,535.99 532.66,540.25 ZM 513.13 537.18 C520.93,546.21 523.01,548.12 522.99,546.25 C522.96,542.76 517.12,523.13 507.90,495.50 C496.94,462.65 488.79,435.85 476.74,393.00 L 470.41 370.50 L 444.95 357.67 C430.95,350.61 399.48,334.59 375.00,322.07 C332.95,300.56 298.60,284.00 296.02,284.00 C295.39,284.00 300.84,291.09 308.14,299.75 C320.36,314.25 329.23,324.46 370.00,370.96 C377.98,380.06 400.23,405.95 419.46,428.50 C438.69,451.05 465.75,482.55 479.59,498.50 C493.43,514.45 508.52,531.86 513.13,537.18 ZM 526.16 527.75 C526.09,528.99 526.47,530.00 527.01,530.00 C527.56,530.00 528.00,527.03 528.00,523.25 C528.01,519.54 528.43,502.55 528.95,485.50 C529.46,468.45 530.38,430.42 530.99,401.00 C531.59,371.58 532.32,344.33 532.61,340.47 L 533.13 333.43 L 562.82 326.07 C609.73,314.43 651.53,303.20 650.76,302.43 C650.55,302.21 646.80,302.67 642.44,303.45 C638.07,304.22 624.15,306.50 611.50,308.51 C586.68,312.45 549.72,318.83 535.96,321.54 L 527.42 323.23 L 507.96 319.68 C468.45,312.48 421.56,304.91 418.58,305.25 L 415.50 305.59 L 418.50 306.89 C420.15,307.61 443.83,313.84 471.13,320.74 L 520.77 333.28 L 521.38 337.78 C521.72,340.25 522.00,356.10 522.00,372.99 C522.00,413.07 523.68,484.70 525.15,507.50 C525.78,517.40 526.24,526.51 526.16,527.75 ZM 536.08 517.24 C536.23,519.71 537.52,514.78 556.42,439.72 L 575.50 363.93 L 609.50 348.39 C628.20,339.85 655.20,327.67 669.50,321.33 C683.80,314.98 695.69,309.62 695.92,309.40 C697.39,307.99 694.33,308.06 689.81,309.53 C674.35,314.57 588.04,346.58 572.92,352.88 L 565.35 356.04 L 564.23 361.77 C555.99,404.14 550.69,432.09 548.99,442.17 C547.84,448.95 545.15,463.95 543.00,475.50 C538.77,498.26 535.95,515.24 536.08,517.24 ZM 204.72 623.25 C212.13,636.31 218.48,647.00 218.84,646.99 C219.21,646.98 223.10,640.24 227.50,632.01 C231.90,623.78 235.78,617.03 236.11,617.02 C236.45,617.01 240.46,623.76 245.02,632.03 C249.58,640.30 253.77,646.91 254.33,646.72 C254.90,646.53 258.34,641.01 261.99,634.44 C265.64,627.87 272.30,616.20 276.79,608.50 L 284.95 594.50 L 279.34 594.20 C276.25,594.03 273.18,594.10 272.52,594.35 C271.86,594.61 267.63,601.38 263.12,609.41 C258.61,617.43 254.76,624.00 254.57,624.00 C254.37,624.00 250.50,617.25 245.97,609.00 C241.43,600.75 237.18,594.00 236.51,594.00 C235.84,594.00 231.74,600.53 227.41,608.50 C223.08,616.47 219.26,623.00 218.91,623.00 C218.56,623.00 214.52,616.47 209.93,608.50 L 201.59 594.00 L 195.30 594.00 C191.83,594.00 189.00,594.25 189.00,594.57 C189.00,595.44 190.29,597.78 204.72,623.25 ZM 609.68 647.35 C610.06,647.72 622.55,647.91 637.43,647.77 L 664.50 647.50 L 665.10 637.00 L 621.00 637.00 L 621.00 627.00 L 629.85 627.00 C634.72,627.00 642.14,626.71 646.35,626.35 L 654.00 625.71 L 654.00 615.00 L 621.00 615.00 L 621.00 604.04 L 642.75 603.77 L 664.50 603.50 L 664.80 598.75 L 665.11 594.00 L 609.00 594.00 L 609.00 620.33 C609.00,634.82 609.31,646.97 609.68,647.35 ZM 515.00 510.61 C515.00,510.82 515.39,511.00 515.87,511.00 C516.36,511.00 516.35,508.93 515.85,506.25 C515.36,503.64 514.72,500.15 514.44,498.50 C512.43,486.72 495.09,392.96 490.52,369.12 C489.22,362.32 487.78,356.39 487.32,355.95 C485.71,354.39 458.06,343.75 393.50,319.86 C383.05,315.99 368.06,310.39 360.18,307.41 C352.30,304.44 345.57,302.00 345.23,302.00 C343.15,302.00 348.72,304.83 366.00,312.56 C461.63,355.31 477.73,362.92 478.94,365.92 C479.97,368.47 489.13,404.83 498.98,445.50 C501.78,457.05 506.53,476.34 509.53,488.36 C512.54,500.38 515.00,510.39 515.00,510.61 ZM 809.67 647.33 C810.03,647.70 819.84,648.00 831.45,648.00 C851.37,648.00 852.83,647.87 857.03,645.75 C863.30,642.58 866.00,638.14 866.00,631.00 C866.00,626.73 865.43,624.44 863.73,621.90 C859.75,615.94 856.47,615.00 839.47,615.00 C822.59,615.00 819.62,614.10 820.19,609.18 C820.72,604.64 823.64,604.03 844.75,604.01 L 864.00 604.00 L 864.00 594.00 L 841.25 594.00 C820.45,594.01 818.23,594.17 815.30,595.96 C810.90,598.64 809.00,602.80 809.01,609.70 C809.01,616.57 811.05,620.27 816.70,623.69 C820.24,625.83 821.59,625.99 836.18,625.99 C849.09,626.00 852.13,626.28 853.43,627.57 C855.57,629.71 855.40,632.60 853.00,635.00 C851.13,636.87 849.67,637.00 830.00,637.00 L 809.00 637.00 L 809.00 641.83 C809.00,644.49 809.30,646.97 809.67,647.33 ZM 540.00 621.00 L 540.00 648.00 L 551.00 648.00 L 551.00 632.00 C551.00,621.37 551.36,616.00 552.06,616.00 C552.65,616.00 563.24,622.77 575.60,631.05 C587.97,639.32 598.74,646.35 599.54,646.65 C600.80,647.14 601.00,643.52 601.00,620.61 L 601.00 594.00 L 589.00 594.00 L 589.00 626.08 L 565.12 610.04 C551.99,601.22 540.96,594.00 540.62,594.00 C540.28,594.00 540.00,606.15 540.00,621.00 ZM 471.67 647.33 C472.03,647.70 474.51,648.00 477.17,648.00 L 482.00 648.00 L 482.12 638.25 C482.18,632.89 482.18,628.16 482.12,627.75 C482.05,627.34 490.28,627.00 500.39,627.00 C516.24,627.00 518.87,627.22 519.39,628.58 C519.73,629.45 520.00,634.20 520.00,639.13 L 520.00 648.10 L 530.50 647.50 L 530.77 620.75 L 531.03 594.00 L 520.00 594.00 L 520.00 603.42 C520.00,608.60 519.73,613.55 519.39,614.42 C518.88,615.77 516.49,616.00 503.14,615.99 C502.59,615.99 502.05,615.99 501.52,615.99 C489.10,615.98 485.00,615.98 483.65,614.05 C482.99,613.10 482.99,611.69 483.00,609.58 C483.00,609.40 483.00,609.21 483.00,609.02 C483.00,605.86 482.71,601.19 482.36,598.64 L 481.73 594.00 L 471.00 594.00 L 471.00 620.33 C471.00,634.82 471.30,646.97 471.67,647.33 ZM 673.03 647.25 C673.01,647.66 676.13,648.00 679.96,648.00 L 686.91 648.00 L 695.10 638.50 C699.61,633.28 703.56,629.04 703.90,629.09 C704.23,629.13 708.25,633.41 712.83,638.59 L 721.16 648.00 L 727.52 648.00 C731.02,648.00 734.11,647.63 734.39,647.18 C734.94,646.29 730.35,640.51 719.75,628.76 C716.04,624.64 713.00,620.70 713.00,620.00 C713.00,619.30 716.49,614.90 720.75,610.22 C725.01,605.54 730.00,599.98 731.83,597.86 L 735.16 594.00 L 720.42 594.00 L 712.50 603.00 C708.14,607.95 704.33,612.00 704.04,611.99 C703.74,611.99 699.96,607.94 695.64,602.99 L 687.79 594.00 L 672.76 594.00 L 678.59 600.75 C681.80,604.46 686.81,610.11 689.72,613.31 C692.62,616.50 695.00,619.65 694.99,620.31 C694.98,620.96 690.04,627.12 684.01,634.00 C677.98,640.88 673.04,646.84 673.03,647.25 ZM 756.65 646.97 C758.22,647.44 764.90,647.86 771.50,647.90 C782.10,647.97 784.08,647.71 788.50,645.63 C798.86,640.77 800.00,637.54 800.00,613.03 L 800.00 594.00 L 789.00 594.00 L 789.00 629.97 L 786.08 633.23 L 783.16 636.50 L 771.66 636.50 C761.51,636.50 759.81,636.25 757.32,634.39 L 754.50 632.29 L 753.96 594.00 L 741.82 594.00 L 742.16 613.75 C742.48,632.20 742.65,633.76 744.80,637.52 C747.26,641.80 751.99,645.58 756.65,646.97 ZM 419.01 646.68 C421.03,647.33 430.82,647.84 442.25,647.90 L 462.00 648.00 L 462.00 637.00 L 443.97 637.00 C424.41,637.00 421.49,636.41 417.02,631.57 C413.67,627.94 412.93,616.38 415.70,611.00 C418.90,604.78 421.97,604.00 443.25,604.00 L 462.00 604.00 L 462.00 594.00 L 440.75 594.02 C422.20,594.04 418.99,594.28 415.50,595.90 C407.57,599.57 403.35,606.45 402.33,617.38 C401.42,627.10 403.90,634.26 410.34,640.54 C413.19,643.31 417.09,646.07 419.01,646.68 ZM 274.00 647.49 C274.00,647.77 276.86,648.00 280.35,648.00 L 286.70 648.00 L 297.10 631.03 C302.82,621.70 307.89,614.18 308.37,614.32 C308.85,614.46 313.84,621.99 319.46,631.04 L 329.68 647.50 L 335.48 647.80 C338.68,647.97 341.64,647.75 342.07,647.30 C342.50,646.86 337.74,638.40 331.49,628.50 C325.23,618.60 317.64,606.56 314.60,601.75 C311.57,596.94 308.65,593.00 308.12,593.00 C307.28,593.00 274.00,646.15 274.00,647.49 ZM 362.00 604.00 L 362.00 648.00 L 373.00 648.00 L 373.00 604.06 L 385.25 603.78 L 397.50 603.50 L 397.80 598.91 L 398.10 594.32 L 381.34 593.69 C372.12,593.34 358.37,593.34 350.79,593.68 L 337.00 594.31 L 337.00 604.00 ZM 296.00 647.45 C296.00,648.37 318.84,648.07 319.41,647.14 C319.96,646.26 308.98,627.03 307.93,627.01 C307.34,627.00 296.00,646.44 296.00,647.45 ZM 403.00 303.00 C404.96,304.26 407.00,304.26 407.00,303.00 C407.00,302.45 405.76,302.01 404.25,302.02 C402.11,302.03 401.83,302.24 403.00,303.00 Z" fill="rgb(33,32,37)"/>
<path d="M 537.95 512.31 C544.45,487.34 569.60,387.00 570.37,382.75 C570.97,379.41 570.27,379.16 569.08,382.28 C568.59,383.58 567.29,384.63 566.06,384.72 C564.04,384.87 563.94,384.56 564.54,380.19 C564.90,377.61 565.79,372.80 566.53,369.50 C567.36,365.78 567.51,363.14 566.93,362.55 C565.74,361.34 565.70,357.70 566.89,358.43 C567.37,358.73 568.01,358.08 568.29,356.99 C568.58,355.89 568.52,355.01 568.16,355.02 C567.98,355.02 567.81,355.04 567.65,355.08 L 572.92 352.88 C588.04,346.58 674.35,314.57 689.81,309.53 C694.33,308.06 697.39,307.99 695.92,309.40 C695.69,309.62 683.80,314.98 669.50,321.33 C655.20,327.67 628.20,339.85 609.50,348.39 L 575.50 363.93 L 556.42 439.72 C545.23,484.16 540.22,504.02 537.95,512.31 ZM 672.04 385.50 C681.69,374.45 693.53,360.86 701.27,351.95 C711.04,340.70 720.82,329.51 723.01,327.08 C725.20,324.65 726.74,322.41 726.44,322.10 C726.13,321.80 724.37,323.34 722.53,325.52 C720.69,327.71 718.84,329.16 718.42,328.75 C718.01,328.33 716.84,328.74 715.83,329.65 C712.42,332.74 714.44,327.73 718.65,322.67 C719.94,321.12 721.00,319.00 721.00,317.97 C721.00,316.94 722.84,314.62 725.08,312.81 C728.60,309.99 729.11,309.09 728.79,306.30 C728.57,304.44 728.90,302.87 729.57,302.61 C731.08,302.03 732.07,298.16 730.90,297.44 C730.47,297.17 697.72,313.30 663.83,330.26 C671.37,326.46 678.79,322.73 685.50,319.37 C709.15,307.52 730.08,297.00 732.00,296.00 C736.33,293.76 755.83,285.00 756.51,285.00 C758.02,285.00 756.45,287.94 752.28,292.89 C739.62,307.91 722.61,327.66 704.00,348.95 C695.03,359.21 682.08,374.01 672.04,385.50 ZM 562.82 326.07 L 551.24 328.94 L 578.54 322.08 C621.14,311.37 623.94,310.53 623.77,308.52 L 623.61 306.57 C632.04,305.20 639.46,303.97 642.44,303.45 C646.80,302.67 650.55,302.21 650.76,302.43 C651.53,303.20 609.73,314.43 562.82,326.07 ZM 710.65 312.74 C705.33,315.22 703.53,315.57 704.54,313.93 C704.90,313.35 705.43,313.09 705.71,313.37 C705.99,313.65 707.14,313.01 708.28,311.95 C709.42,310.89 710.05,309.72 709.68,309.34 C709.30,308.97 709.00,309.22 709.00,309.89 C709.00,310.57 708.55,310.84 708.00,310.50 C707.45,310.16 707.00,310.26 707.00,310.73 C707.00,311.19 705.99,311.64 704.75,311.72 C703.34,311.80 704.56,310.80 708.00,309.03 C711.78,307.08 713.88,306.50 714.70,307.18 C715.36,307.72 716.94,307.86 718.20,307.49 C720.44,306.83 720.44,306.86 718.00,308.65 C716.62,309.66 713.32,311.50 710.65,312.74 ZM 567.07 355.33 C565.84,356.07 564.99,358.22 564.12,362.50 C563.87,363.73 563.58,365.15 563.27,366.72 C563.59,365.09 563.91,363.44 564.23,361.77 L 565.35 356.04 ZM 595.44 365.01 C594.49,365.51 593.64,365.97 592.90,366.37 L 584.39 370.97 L 584.50 370.61 ZM 574.87 402.30 C568.44,423.54 562.96,441.47 557.73,458.30 C562.20,443.85 567.48,426.59 574.87,402.30 ZM 535.96 321.54 C540.55,320.64 547.73,319.32 556.18,317.83 C550.42,318.86 545.28,319.81 540.94,320.64 L 530.06 322.71 ZM 554.40 412.84 C551.90,426.08 549.75,437.69 548.99,442.17 C549.87,436.98 551.70,427.04 554.40,412.84 ZM 533.13 333.50 L 532.61 340.47 L 533.12 333.50 L 533.13 333.50 Z" fill="rgb(66,106,161)"/>
<path d="M 672.04 385.50 L 665.00 393.55 C654.83,405.19 636.38,426.58 624.01,441.10 C613.15,453.85 595.01,474.96 581.06,491.10 C590.43,480.24 600.81,468.16 607.79,460.00 C617.89,448.17 627.14,437.38 628.33,436.00 C632.60,431.10 633.64,429.32 630.73,431.91 C628.28,434.10 627.10,434.33 618.04,434.44 C611.63,434.51 607.61,434.99 606.83,435.77 C606.15,436.45 604.20,437.00 602.49,437.00 C600.78,437.00 598.53,437.62 597.48,438.39 C596.44,439.15 595.01,439.56 594.30,439.29 C593.59,439.01 591.47,439.71 589.57,440.83 C587.68,441.94 583.96,443.18 581.31,443.58 C578.67,443.97 575.51,444.94 574.29,445.73 C573.08,446.52 571.60,446.87 571.00,446.50 C570.40,446.13 568.89,446.50 567.65,447.31 C566.03,448.37 564.88,448.51 563.62,447.81 C562.65,447.26 561.72,446.97 561.56,447.16 C561.31,447.46 560.20,450.79 554.58,468.44 C555.59,465.19 556.64,461.83 557.73,458.30 C562.96,441.47 568.44,423.54 574.87,402.30 C576.23,397.80 577.68,393.06 579.20,388.05 L 584.39 370.97 L 592.90 366.37 C593.64,365.97 594.49,365.51 595.44,365.01 L 596.44 364.50 C596.59,364.73 597.09,365.25 597.86,365.92 C598.76,366.71 599.36,367.25 600.06,367.55 C601.60,368.20 603.62,367.70 610.19,366.08 L 610.50 366.00 C614.90,364.91 619.68,364.02 621.13,364.01 C622.57,364.01 625.27,363.41 627.13,362.68 C631.24,361.07 651.40,361.93 654.50,363.86 C656.35,365.00 656.32,365.04 654.01,364.40 C651.85,363.80 651.69,363.92 652.79,365.24 C653.54,366.16 656.66,367.05 660.52,367.46 C666.13,368.07 667.25,368.54 669.06,371.08 C671.27,374.18 672.47,374.67 673.55,372.91 C673.99,372.21 674.57,372.17 675.19,372.79 C675.81,373.41 677.76,372.91 680.64,371.37 C683.11,370.06 684.84,369.44 684.50,370.00 C683.08,372.30 684.43,371.13 689.33,365.67 C683.62,372.22 677.49,379.26 672.05,385.49 ZM 549.79 447.59 C553.34,450.19 554.43,447.41 562.32,415.64 C568.23,391.86 570.19,383.87 570.57,381.25 C570.55,381.65 570.48,382.15 570.37,382.75 C569.75,386.22 552.91,453.54 543.19,491.83 C544.24,486.97 544.17,485.62 543.36,485.31 C542.56,485.00 541.71,484.96 541.45,485.22 C541.21,485.46 539.92,492.40 538.65,499.75 C539.80,493.03 541.28,484.74 543.00,475.50 C545.15,463.95 547.84,448.95 548.99,442.17 C549.13,441.36 549.31,440.31 549.53,439.07 C548.40,446.30 548.83,446.88 549.79,447.59 ZM 596.62 364.41 L 613.50 355.76 C618.45,353.23 624.98,349.90 632.35,346.17 C612.91,356.06 598.34,363.64 598.16,364.11 C597.98,364.60 597.31,364.75 596.66,364.43 C596.65,364.42 596.63,364.41 596.62,364.41 ZM 561.79 374.36 C562.27,371.87 562.76,369.33 563.27,366.72 C563.58,365.15 563.87,363.73 564.12,362.50 C564.41,361.03 564.71,359.82 565.02,358.82 C564.41,361.23 563.48,365.72 561.79,374.36 ZM 542.80 535.57 C547.82,529.62 557.29,518.58 566.21,508.27 C556.50,519.51 547.43,530.09 542.80,535.57 ZM 566.78 355.53 C566.87,355.45 566.97,355.39 567.07,355.33 L 567.65 355.08 C567.81,355.04 567.98,355.02 568.16,355.02 C568.32,355.01 568.42,355.19 568.46,355.49 C568.33,354.90 567.78,354.92 566.78,355.53 ZM 719.43 331.13 C721.12,329.21 722.37,327.79 723.01,327.08 C724.63,325.29 725.89,323.60 726.32,322.71 C725.89,323.60 724.63,325.29 723.01,327.08 C722.38,327.78 721.13,329.20 719.43,331.13 ZM 570.17 380.18 C569.87,380.52 569.44,381.34 569.08,382.28 C569.53,381.11 569.90,380.42 570.17,380.18 Z" fill="rgb(63,152,179)"/>
<path d="M 596.62 364.41 C596.63,364.41 596.65,364.42 596.66,364.43 C597.31,364.75 597.98,364.60 598.16,364.11 C598.34,363.64 612.91,356.06 632.35,346.17 C641.98,341.28 653.04,335.70 663.83,330.26 L 663.84 330.26 C697.72,313.30 730.47,297.17 730.90,297.44 C732.07,298.16 731.08,302.03 729.57,302.61 C728.90,302.87 728.57,304.44 728.79,306.30 C729.11,309.09 728.60,309.99 725.08,312.81 C722.84,314.62 721.00,316.94 721.00,317.97 C721.00,319.00 719.94,321.12 718.65,322.67 C714.44,327.73 712.42,332.74 715.83,329.65 C716.84,328.74 718.01,328.33 718.42,328.75 C718.84,329.16 720.69,327.71 722.53,325.52 C724.37,323.34 726.13,321.80 726.44,322.10 C726.52,322.18 726.47,322.40 726.32,322.71 L 726.32 322.72 C725.89,323.60 724.62,325.29 723.01,327.08 C722.37,327.79 721.12,329.21 719.43,331.13 C715.21,335.94 708.23,343.93 701.27,351.95 C697.89,355.84 693.74,360.61 689.33,365.67 L 689.33 365.67 C684.43,371.13 683.08,372.30 684.50,370.00 C684.84,369.44 683.11,370.06 680.64,371.37 C677.76,372.91 675.81,373.41 675.19,372.79 C674.57,372.17 673.99,372.21 673.55,372.91 C672.47,374.67 671.27,374.18 669.06,371.08 C667.25,368.54 666.13,368.07 660.52,367.46 C656.66,367.05 653.54,366.16 652.79,365.24 C651.69,363.92 651.85,363.80 654.01,364.40 C656.32,365.04 656.35,365.00 654.50,363.86 C651.40,361.93 631.24,361.07 627.13,362.68 C625.27,363.41 622.57,364.01 621.13,364.01 C619.68,364.02 614.90,364.91 610.50,366.00 L 610.19 366.08 C603.62,367.70 601.60,368.20 600.06,367.55 C599.36,367.25 598.76,366.71 597.86,365.92 C597.09,365.25 596.59,364.73 596.44,364.50 ZM 549.79 447.59 C548.83,446.88 548.40,446.30 549.53,439.07 C550.56,433.24 552.19,424.47 554.40,412.84 C556.40,402.30 558.87,389.41 561.79,374.36 L 561.79 374.35 C563.48,365.71 564.41,361.23 565.02,358.82 C565.54,357.15 566.10,356.09 566.78,355.53 C567.78,354.92 568.33,354.90 568.46,355.49 C568.50,355.85 568.45,356.39 568.29,356.99 C568.01,358.08 567.37,358.73 566.89,358.43 C565.70,357.70 565.74,361.34 566.93,362.55 C567.51,363.14 567.36,365.78 566.53,369.50 C565.79,372.80 564.90,377.61 564.54,380.19 C563.94,384.56 564.04,384.87 566.06,384.72 C567.29,384.63 568.59,383.58 569.08,382.28 C569.44,381.34 569.87,380.52 570.17,380.18 C570.49,379.89 570.65,380.26 570.57,381.25 C570.19,383.87 568.23,391.86 562.32,415.64 C554.43,447.41 553.34,450.19 549.79,447.59 ZM 710.65 312.74 C713.32,311.50 716.62,309.66 718.00,308.65 C720.44,306.86 720.44,306.83 718.20,307.49 C716.94,307.86 715.36,307.72 714.70,307.18 C713.88,306.50 711.78,307.08 708.00,309.03 C704.56,310.80 703.34,311.80 704.75,311.72 C705.99,311.64 707.00,311.19 707.00,310.73 C707.00,310.26 707.45,310.16 708.00,310.50 C708.55,310.84 709.00,310.57 709.00,309.89 C709.00,309.22 709.30,308.97 709.68,309.34 C710.05,309.72 709.42,310.89 708.28,311.95 C707.14,313.01 705.99,313.65 705.71,313.37 C705.43,313.09 704.90,313.35 704.54,313.93 C703.53,315.57 705.33,315.22 710.65,312.74 Z" fill="rgb(66,124,175)"/>
<path d="M 532.66 540.25 C533.45,535.99 535.84,527.10 537.97,520.50 C544.61,500.00 549.19,485.71 554.58,468.44 L 554.58 468.44 C560.20,450.79 561.31,447.46 561.56,447.16 C561.72,446.97 562.65,447.26 563.62,447.81 C564.88,448.51 566.03,448.37 567.65,447.31 C568.89,446.50 570.40,446.13 571.00,446.50 C571.60,446.87 573.08,446.52 574.29,445.73 C575.51,444.94 578.67,443.97 581.31,443.58 C583.96,443.18 587.68,441.94 589.57,440.83 C591.47,439.71 593.59,439.01 594.30,439.29 C595.01,439.56 596.44,439.15 597.48,438.39 C598.53,437.62 600.78,437.00 602.49,437.00 C604.20,437.00 606.15,436.45 606.83,435.77 C607.61,434.99 611.63,434.51 618.04,434.44 C627.10,434.33 628.28,434.10 630.73,431.91 C633.64,429.32 632.60,431.10 628.33,436.00 C627.14,437.38 617.89,448.17 607.79,460.00 C600.81,468.16 590.43,480.24 581.06,491.10 C579.12,493.34 577.26,495.49 575.51,497.51 C572.43,501.07 569.29,504.70 566.21,508.27 L 566.20 508.27 C557.28,518.58 547.82,529.62 542.80,535.57 C542.09,536.40 541.49,537.12 541.00,537.71 C536.33,543.30 532.22,547.91 531.87,547.94 C531.52,547.97 531.88,544.51 532.66,540.25 ZM 536.08 517.24 C536.00,516.05 536.97,509.58 538.65,499.75 L 538.65 499.73 C539.92,492.39 541.21,485.45 541.45,485.22 C541.71,484.96 542.56,485.00 543.36,485.31 C544.17,485.62 544.24,486.97 543.19,491.83 C540.99,500.51 539.15,507.69 537.95,512.31 C536.39,518.02 536.14,518.25 536.08,517.24 Z" fill="rgb(82,173,162)"/>
<path d="M 521.96 361.57 C522.15,372.74 522.34,387.04 522.49,402.00 C522.76,428.04 523.14,450.91 523.63,469.77 C522.72,439.03 522.00,399.24 522.00,372.99 C522.00,369.08 521.99,365.22 521.96,361.57 ZM 526.16 527.75 C526.21,527.08 526.09,524.10 525.88,519.94 C526.26,523.39 526.74,525.65 527.07,525.30 C527.66,524.69 528.53,502.66 529.54,463.71 C529.32,472.47 529.11,480.05 528.95,485.50 C528.43,502.55 528.01,519.54 528.00,523.25 C528.00,527.03 527.56,530.00 527.01,530.00 C526.47,530.00 526.09,528.99 526.16,527.75 ZM 521.05 335.33 L 520.77 333.28 L 520.87 333.30 ZM 530.56 421.04 C530.71,414.16 530.86,406.97 531.02,399.50 C531.29,386.39 531.59,373.72 531.86,363.46 C531.58,374.07 531.27,387.30 530.99,401.00 C530.86,407.38 530.71,414.16 530.56,421.04 Z" fill="rgb(100,63,44)"/>
<path d="M 539.85 331.77 C540.78,331.43 541.47,331.05 541.67,330.72 C542.47,329.42 542.50,322.16 541.70,321.37 C541.41,321.08 538.01,321.34 534.09,321.94 L 540.94 320.64 C545.28,319.81 550.42,318.86 556.18,317.83 L 556.18 317.83 C573.04,314.84 594.96,311.14 611.50,308.51 C615.52,307.87 619.68,307.20 623.61,306.57 L 623.77 308.52 C623.94,310.53 621.14,311.37 578.54,322.08 L 551.24 328.94 L 551.24 328.94 ZM 517.67 321.45 C514.99,321.00 511.69,320.41 507.50,319.63 C495.13,317.35 481.45,314.96 468.60,312.78 C481.31,314.93 495.03,317.33 507.96,319.68 ZM 533.14 333.43 L 533.16 333.15 L 536.66 332.56 Z" fill="rgb(104,93,141)"/>
<path d="M 403.00 303.00 C401.83,302.24 402.11,302.03 404.25,302.02 C405.76,302.01 407.00,302.45 407.00,303.00 C407.00,304.26 404.96,304.26 403.00,303.00 Z" fill="rgb(177,75,68)"/>
<path d="M 533.13 333.50 L 533.12 333.50 L 532.99 335.33 L 532.97 335.59 L 532.61 340.47 C532.46,342.53 532.18,351.28 531.86,363.46 C531.59,373.72 531.29,386.39 531.02,399.50 C530.86,406.94 530.71,414.10 530.56,420.96 L 530.56 421.04 C530.23,435.77 529.87,450.98 529.54,463.71 L 529.54 463.75 C528.53,502.67 527.66,524.69 527.07,525.30 C526.74,525.65 526.26,523.39 525.88,519.94 C525.69,516.42 525.44,512.04 525.15,507.50 C524.64,499.63 524.11,485.96 523.63,469.77 C523.14,450.91 522.76,428.04 522.49,402.00 C522.34,387.04 522.15,372.74 521.96,361.57 C521.87,349.48 521.64,339.68 521.38,337.78 L 521.05 335.33 L 520.87 333.30 L 520.77 333.28 L 471.13 320.74 C443.83,313.84 420.15,307.61 418.50,306.89 L 415.50 305.59 L 418.58 305.25 C420.59,305.02 442.46,308.37 468.60,312.78 L 468.66 312.79 C481.49,314.96 495.15,317.36 507.50,319.63 C511.69,320.41 514.99,321.00 517.67,321.45 L 527.42 323.23 L 530.06 322.71 L 534.09 321.94 C538.01,321.34 541.41,321.08 541.70,321.37 C542.50,322.16 542.47,329.42 541.67,330.72 C541.47,331.05 540.78,331.43 539.85,331.77 L 536.66 332.56 L 533.16 333.15 L 533.14 333.43 L 533.13 333.43 Z" fill="rgb(178,85,113)"/>
<path d="M 355.57 351.32 C356.15,352.83 364.02,352.80 378.50,351.23 C388.26,350.17 391.85,349.09 393.91,346.60 C394.70,345.65 396.77,345.00 399.00,345.00 C403.18,345.00 405.38,343.24 404.00,341.00 C403.51,340.21 403.49,339.11 403.97,338.53 C404.70,337.65 378.32,323.70 351.44,310.13 C358.88,313.86 366.79,317.87 375.00,322.07 C399.48,334.59 430.95,350.61 444.95,357.67 L 470.41 370.50 L 476.74 393.00 C487.98,432.95 495.82,458.96 505.72,488.92 C495.87,459.15 489.10,436.76 477.41,395.50 C471.15,373.37 469.38,369.09 466.50,369.05 C465.95,369.04 466.11,369.42 466.86,369.89 C467.70,370.43 467.83,370.99 467.20,371.38 C466.64,371.72 466.42,372.87 466.69,373.93 C467.09,375.47 466.79,375.76 465.20,375.34 C462.79,374.71 454.36,376.31 443.50,379.46 C432.00,382.80 415.69,384.10 399.14,382.99 C393.90,382.64 392.56,382.88 391.50,384.34 C390.27,386.01 389.92,385.97 385.04,383.61 C382.20,382.24 380.01,381.50 380.19,381.97 C380.35,382.41 394.92,399.70 413.28,421.26 C395.69,400.67 377.13,379.10 370.00,370.96 C359.08,358.51 350.45,348.66 343.44,340.63 C348.82,346.52 352.43,350.00 353.24,350.00 C354.24,350.00 355.29,350.59 355.57,351.32 ZM 487.08 397.09 C482.67,379.50 479.52,367.36 478.94,365.92 C477.91,363.37 466.20,357.53 404.51,329.81 L 406.74 327.74 L 408.98 325.67 L 391.74 319.25 C382.26,315.72 368.06,310.39 360.18,307.41 C357.35,306.35 354.67,305.35 352.38,304.51 C354.67,305.35 357.35,306.35 360.18,307.41 C368.06,310.39 383.05,315.99 393.50,319.86 C458.06,343.75 485.71,354.39 487.32,355.95 C487.78,356.39 489.22,362.32 490.52,369.12 C491.41,373.74 492.77,380.97 494.41,389.72 C492.56,380.33 491.19,373.93 490.92,373.62 C490.50,373.14 489.81,376.07 489.40,380.12 L 488.66 387.50 L 486.89 381.61 C485.92,378.37 484.65,375.25 484.06,374.66 C483.48,374.08 483.00,372.37 483.00,370.87 C483.00,368.50 480.35,364.31 479.43,365.23 C479.25,365.42 481.27,374.10 483.92,384.53 C484.76,387.84 485.86,392.20 487.08,397.09 ZM 495.00 404.00 C495.00,406.67 493.60,406.54 492.26,403.75 C490.60,400.28 490.10,398.36 489.52,393.24 L 488.98 388.50 L 490.56 392.50 C491.44,394.70 492.58,397.31 493.11,398.29 C493.64,399.28 493.80,400.51 493.47,401.04 C493.15,401.57 493.36,402.00 493.94,402.00 C494.52,402.00 495.00,402.90 495.00,404.00 ZM 317.90 311.23 C314.43,307.19 311.41,303.63 308.14,299.75 C303.23,293.93 299.16,288.82 297.21,286.09 C299.97,289.89 307.23,298.71 317.90,311.23 ZM 510.95 494.03 C510.50,492.22 510.02,490.31 509.53,488.36 C506.53,476.34 501.78,457.05 498.98,445.50 L 498.75 444.54 C502.09,458.17 505.97,473.94 508.57,484.42 C509.41,487.80 510.21,491.05 510.95,494.03 ZM 514.61 538.90 C521.34,546.52 523.01,547.90 522.99,546.25 C523.01,547.99 521.20,546.44 514.61,538.90 ZM 514.86 500.87 C515.16,502.55 515.53,504.58 515.85,506.25 C516.30,508.68 516.36,510.61 516.00,510.95 C516.35,510.60 516.30,508.67 515.84,506.25 C515.54,504.65 515.17,502.63 514.86,500.87 ZM 295.97 284.07 C295.97,284.02 295.99,284.00 296.02,284.00 L 296.03 284.00 C295.99,284.00 295.97,284.03 295.97,284.07 Z" fill="rgb(221,102,71)"/>
<path d="M 355.57 351.32 C355.29,350.59 354.24,350.00 353.24,350.00 C352.43,350.00 348.82,346.52 343.44,340.63 L 343.44 340.63 C331.25,326.70 323.92,318.25 317.90,311.23 L 317.89 311.23 C307.23,298.71 299.97,289.90 297.21,286.09 L 297.21 286.09 C296.43,285.00 295.99,284.29 295.97,284.07 C295.97,284.03 295.99,284.00 296.03,284.00 C298.16,284.03 320.80,294.75 351.44,310.13 C378.32,323.70 404.70,337.65 403.97,338.53 C403.49,339.11 403.51,340.21 404.00,341.00 C405.38,343.24 403.18,345.00 399.00,345.00 C396.77,345.00 394.70,345.65 393.91,346.60 C391.85,349.09 388.26,350.17 378.50,351.23 C364.02,352.80 356.15,352.83 355.57,351.32 ZM 345.23 302.00 C345.45,302.00 348.29,303.00 352.38,304.50 C354.67,305.35 357.35,306.35 360.18,307.41 C368.06,310.39 382.26,315.72 391.74,319.25 L 408.98 325.67 L 406.74 327.74 L 404.51 329.81 C393.38,324.81 380.62,319.09 366.00,312.56 C348.72,304.83 343.15,302.00 345.23,302.00 Z" fill="rgb(214,85,90)"/>
<path d="M 513.13 537.18 C508.52,531.86 493.43,514.45 479.59,498.50 C466.02,482.86 439.74,452.27 420.59,429.82 C420.93,429.94 420.91,429.66 420.51,429.01 C419.88,428.00 420.36,427.87 422.60,428.42 C424.20,428.81 426.29,429.10 427.25,429.08 C428.21,429.05 431.17,428.93 433.81,428.82 C438.14,428.64 449.49,431.83 452.50,434.07 C453.05,434.48 456.73,435.95 460.68,437.32 C466.01,439.18 469.85,439.82 475.65,439.80 C481.74,439.78 483.68,440.12 484.46,441.37 C485.31,442.72 485.75,442.43 487.24,439.52 L 489.01 436.07 L 485.01 422.02 C492.48,447.79 498.20,466.21 505.71,488.91 L 505.72 488.92 C506.43,491.09 507.16,493.28 507.90,495.50 C517.12,523.13 522.96,542.76 522.99,546.25 C522.99,546.28 522.99,546.31 522.99,546.33 C522.99,546.31 522.99,546.28 522.99,546.25 C523.01,547.90 521.34,546.52 514.61,538.90 C514.14,538.36 513.65,537.79 513.13,537.18 ZM 419.57 428.63 L 419.46 428.50 C417.43,426.12 415.36,423.70 413.28,421.26 L 413.28 421.26 C408.25,415.35 403.51,409.77 399.27,404.77 C408.38,415.14 417.50,425.16 418.31,425.37 C419.56,425.70 420.05,426.43 419.67,427.41 C419.52,427.81 419.49,428.24 419.57,428.63 ZM 477.03 394.16 C470.83,372.83 469.09,369.09 466.50,369.05 C469.32,369.09 471.07,373.20 477.03,394.16 ZM 380.20 381.99 C380.19,381.98 380.19,381.97 380.19,381.97 C380.18,381.95 380.18,381.93 380.18,381.92 C380.18,381.93 380.18,381.95 380.19,381.96 C380.19,381.97 380.19,381.98 380.20,381.99 Z" fill="rgb(230,149,69)"/>
<path d="M 419.57 428.63 C419.49,428.24 419.52,427.81 419.67,427.41 C420.05,426.43 419.56,425.70 418.31,425.37 C417.50,425.16 408.38,415.14 399.27,404.77 C388.21,391.72 380.57,382.60 380.20,381.99 C380.19,381.98 380.19,381.97 380.19,381.96 C380.18,381.95 380.18,381.93 380.18,381.92 C380.19,381.64 381.52,382.04 383.42,382.87 C383.61,382.95 383.81,383.04 384.01,383.13 C384.34,383.28 384.68,383.44 385.04,383.61 C389.92,385.97 390.27,386.01 391.50,384.34 C392.56,382.88 393.90,382.64 399.14,382.99 C415.69,384.10 432.00,382.80 443.50,379.46 C454.36,376.31 462.79,374.71 465.20,375.34 C466.79,375.76 467.09,375.47 466.69,373.93 C466.42,372.87 466.64,371.72 467.20,371.38 C467.83,370.99 467.70,370.43 466.86,369.89 C466.11,369.42 465.95,369.04 466.50,369.05 C469.09,369.09 470.83,372.83 477.03,394.15 L 477.03 394.16 C477.16,394.60 477.29,395.04 477.41,395.50 C480.19,405.28 482.68,414.01 485.01,422.02 L 489.01 436.07 L 487.24 439.52 C485.75,442.43 485.31,442.72 484.46,441.37 C483.68,440.12 481.74,439.78 475.65,439.80 C469.85,439.82 466.01,439.18 460.68,437.32 C456.73,435.95 453.05,434.48 452.50,434.07 C449.49,431.83 438.14,428.64 433.81,428.82 C431.17,428.93 428.21,429.05 427.25,429.08 C426.29,429.10 424.20,428.81 422.60,428.42 C420.36,427.87 419.88,428.00 420.51,429.01 C420.91,429.66 420.93,429.94 420.59,429.82 C420.25,429.42 419.91,429.02 419.57,428.63 ZM 515.00 510.61 C515.00,510.43 513.28,503.38 510.95,494.03 L 510.95 494.03 C510.21,491.04 509.41,487.80 508.57,484.42 C505.97,473.94 502.09,458.17 498.75,444.54 L 498.75 444.54 C494.52,427.11 490.44,410.51 487.08,397.09 L 487.07 397.08 C485.85,392.19 484.76,387.84 483.92,384.53 C481.27,374.10 479.25,365.42 479.43,365.23 C480.35,364.31 483.00,368.50 483.00,370.87 C483.00,372.37 483.48,374.08 484.06,374.66 C484.65,375.25 485.92,378.37 486.89,381.61 L 488.66 387.50 L 489.40 380.12 C489.81,376.07 490.50,373.14 490.92,373.62 C491.19,373.93 492.56,380.33 494.41,389.72 C501.23,426.19 512.82,489.00 514.44,498.50 C514.54,499.09 514.69,499.93 514.86,500.87 C515.17,502.63 515.54,504.65 515.84,506.25 C516.30,508.67 516.35,510.60 516.00,510.95 C515.96,510.98 515.92,511.00 515.87,511.00 C515.39,511.00 515.00,510.82 515.00,510.61 ZM 495.00 404.00 C495.00,402.90 494.52,402.00 493.94,402.00 C493.36,402.00 493.15,401.57 493.47,401.04 C493.80,400.51 493.64,399.28 493.11,398.29 C492.58,397.31 491.44,394.70 490.56,392.50 L 488.98 388.50 L 489.52 393.24 C490.10,398.36 490.60,400.28 492.26,403.75 C493.60,406.54 495.00,406.67 495.00,404.00 Z" fill="rgb(228,129,67)"/>
<path d="M 274.00 647.49 C274.00,646.15 307.28,593.00 308.12,593.00 C308.65,593.00 311.57,596.94 314.60,601.75 C317.64,606.56 325.23,618.60 331.49,628.50 C337.74,638.40 342.50,646.86 342.07,647.30 C341.64,647.75 338.68,647.97 335.48,647.80 L 329.68 647.50 L 319.46 631.04 C313.84,621.99 308.85,614.46 308.37,614.32 C307.89,614.18 302.82,621.70 297.10,631.03 L 286.70 648.00 L 280.35 648.00 C276.86,648.00 274.00,647.77 274.00,647.49 ZM 296.00 647.45 C296.00,646.44 307.34,627.00 307.93,627.01 C308.98,627.03 319.96,646.26 319.41,647.14 C318.84,648.07 296.00,648.37 296.00,647.45 ZM 362.00 626.00 L 362.00 604.00 L 349.50 604.00 L 337.00 604.00 L 337.00 599.16 L 337.00 594.31 L 350.79 593.68 C358.37,593.34 372.12,593.34 381.34,593.69 L 398.10 594.32 L 397.80 598.91 L 397.50 603.50 L 385.25 603.78 L 373.00 604.06 L 373.00 626.03 L 373.00 648.00 L 367.50 648.00 L 362.00 648.00 L 362.00 626.00 ZM 419.01 646.68 C417.09,646.07 413.19,643.31 410.34,640.54 C403.90,634.26 401.42,627.10 402.33,617.38 C403.35,606.45 407.57,599.57 415.50,595.90 C418.99,594.28 422.20,594.04 440.75,594.02 L 462.00 594.00 L 462.00 599.00 L 462.00 604.00 L 443.25 604.00 C421.97,604.00 418.90,604.78 415.70,611.00 C412.93,616.38 413.67,627.94 417.02,631.57 C421.49,636.41 424.41,637.00 443.97,637.00 L 462.00 637.00 L 462.00 642.50 L 462.00 648.00 L 442.25 647.90 C430.82,647.84 421.03,647.33 419.01,646.68 ZM 471.67 647.33 C471.30,646.97 471.00,634.82 471.00,620.33 L 471.00 594.00 L 476.36 594.00 L 481.73 594.00 L 482.36 598.64 C482.71,601.19 483.00,605.86 483.00,609.02 C483.00,616.17 482.43,615.97 503.14,615.99 C516.49,616.00 518.88,615.77 519.39,614.42 C519.73,613.55 520.00,608.60 520.00,603.42 L 520.00 594.00 L 525.52 594.00 L 531.03 594.00 L 530.77 620.75 L 530.50 647.50 L 525.25 647.80 L 520.00 648.10 L 520.00 639.13 C520.00,634.20 519.73,629.45 519.39,628.58 C518.87,627.22 516.24,627.00 500.39,627.00 C490.28,627.00 482.05,627.34 482.12,627.75 C482.18,628.16 482.18,632.89 482.12,638.25 L 482.00 648.00 L 477.17 648.00 C474.51,648.00 472.03,647.70 471.67,647.33 ZM 540.00 621.00 C540.00,606.15 540.28,594.00 540.62,594.00 C540.96,594.00 551.99,601.22 565.12,610.04 L 589.00 626.08 L 589.00 610.04 L 589.00 594.00 L 595.00 594.00 L 601.00 594.00 L 601.00 620.61 C601.00,643.52 600.80,647.14 599.54,646.65 C598.74,646.35 587.97,639.32 575.60,631.05 C563.24,622.77 552.65,616.00 552.06,616.00 C551.36,616.00 551.00,621.37 551.00,632.00 L 551.00 648.00 L 545.50 648.00 L 540.00 648.00 L 540.00 621.00 ZM 609.68 647.35 C609.31,646.97 609.00,634.82 609.00,620.33 L 609.00 594.00 L 637.05 594.00 L 665.11 594.00 L 664.80 598.75 L 664.50 603.50 L 642.75 603.77 L 621.00 604.04 L 621.00 609.52 L 621.00 615.00 L 637.50 615.00 L 654.00 615.00 L 654.00 620.35 L 654.00 625.71 L 646.35 626.35 C642.14,626.71 634.72,627.00 629.85,627.00 L 621.00 627.00 L 621.00 632.00 L 621.00 637.00 L 643.05 637.00 L 665.10 637.00 L 664.80 642.25 L 664.50 647.50 L 637.43 647.77 C622.55,647.91 610.06,647.72 609.68,647.35 ZM 673.03 647.25 C673.04,646.84 677.98,640.88 684.01,634.00 C690.04,627.12 694.98,620.96 694.99,620.31 C695.00,619.65 692.62,616.50 689.72,613.31 C686.81,610.11 681.80,604.46 678.59,600.75 L 672.76 594.00 L 680.27 594.00 L 687.79 594.00 L 695.64 602.99 C699.96,607.94 703.74,611.99 704.04,611.99 C704.33,612.00 708.14,607.95 712.50,603.00 L 720.42 594.00 L 727.79 594.00 L 735.16 594.00 L 731.83 597.86 C730.00,599.98 725.01,605.54 720.75,610.22 C716.49,614.90 713.00,619.30 713.00,620.00 C713.00,620.70 716.04,624.64 719.75,628.76 C730.35,640.51 734.94,646.29 734.39,647.18 C734.11,647.63 731.02,648.00 727.52,648.00 L 721.16 648.00 L 712.83 638.59 C708.25,633.41 704.23,629.13 703.90,629.09 C703.56,629.04 699.61,633.28 695.10,638.50 L 686.91 648.00 L 679.96 648.00 C676.13,648.00 673.01,647.66 673.03,647.25 ZM 756.65 646.97 C751.99,645.58 747.26,641.80 744.80,637.52 C742.65,633.76 742.48,632.20 742.16,613.75 L 741.82 594.00 L 747.89 594.00 L 753.96 594.00 L 754.23 613.14 L 754.50 632.29 L 757.32 634.39 C759.81,636.25 761.51,636.50 771.66,636.50 L 783.16 636.50 L 786.08 633.23 L 789.00 629.97 L 789.00 611.98 L 789.00 594.00 L 794.50 594.00 L 800.00 594.00 L 800.00 613.03 C800.00,637.54 798.86,640.77 788.50,645.63 C784.08,647.71 782.10,647.97 771.50,647.90 C764.90,647.86 758.22,647.44 756.65,646.97 ZM 809.67 647.33 C809.30,646.97 809.00,644.49 809.00,641.83 L 809.00 637.00 L 830.00 637.00 C849.67,637.00 851.13,636.87 853.00,635.00 C855.40,632.60 855.57,629.71 853.43,627.57 C852.13,626.28 849.09,626.00 836.18,625.99 C821.59,625.99 820.24,625.83 816.70,623.69 C811.05,620.27 809.01,616.57 809.01,609.70 C809.00,602.80 810.90,598.64 815.30,595.96 C818.23,594.17 820.45,594.01 841.25,594.00 L 864.00 594.00 L 864.00 599.00 L 864.00 604.00 L 844.75 604.01 C823.64,604.03 820.72,604.64 820.19,609.18 C819.62,614.10 822.59,615.00 839.47,615.00 C856.47,615.00 859.75,615.94 863.73,621.90 C865.43,624.44 866.00,626.73 866.00,631.00 C866.00,638.14 863.30,642.58 857.03,645.75 C852.83,647.87 851.37,648.00 831.45,648.00 C819.84,648.00 810.03,647.70 809.67,647.33 ZM 204.72 623.25 C190.29,597.78 189.00,595.44 189.00,594.57 C189.00,594.25 191.83,594.00 195.30,594.00 L 201.59 594.00 L 209.93 608.50 C214.52,616.47 218.56,623.00 218.91,623.00 C219.26,623.00 223.08,616.47 227.41,608.50 C231.74,600.53 235.84,594.00 236.51,594.00 C237.18,594.00 241.43,600.75 245.97,609.00 C250.50,617.25 254.37,624.00 254.57,624.00 C254.76,624.00 258.61,617.43 263.12,609.41 C267.63,601.38 271.86,594.61 272.52,594.35 C273.18,594.10 276.25,594.03 279.34,594.20 L 284.95 594.50 L 276.79 608.50 C272.30,616.20 265.64,627.87 261.99,634.44 C258.34,641.01 254.90,646.53 254.33,646.72 C253.77,646.91 249.58,640.30 245.02,632.03 C240.46,623.76 236.45,617.01 236.11,617.02 C235.78,617.03 231.90,623.78 227.50,632.01 C223.10,640.24 219.21,646.98 218.84,646.99 C218.48,647.00 212.13,636.31 204.72,623.25 Z" fill="rgb(253,253,253)"/>
</g>
</svg>